<svg xmlns:dc="http://purl.org/dc/elements/1.1/" xmlns:cc="http://creativecommons.org/ns#" xmlns:rdf="http://www.w3.org/1999/02/22-rdf-syntax-ns#" xmlns:svg="http://www.w3.org/2000/svg" xmlns="http://www.w3.org/2000/svg" xmlns:sodipodi="http://sodipodi.sourceforge.net/DTD/sodipodi-0.dtd" xmlns:inkscape="http://www.inkscape.org/namespaces/inkscape" version="1.1" width="84" height="96" style=""><rect id="backgroundrect" width="100%" height="100%" x="0" y="0" fill="none" stroke="none" class="" style=""/><g class="currentLayer" style=""><title>Layer 1</title><g id="svg_1" class="selected" fill="#ffffff" fill-opacity="1"><path style="color:#000000;enable-background:accumulate;" d="m42,-8.16339706943836e-9 c-1.1046,0 -2,0.8954000000000002 -2,2 l0,8 c0,1.1046 0.8954000000000002,2 2,2 c1.1046,0 2,-0.8954000000000002 2,-2 l0,-8 c0,-1.1046 -0.8954000000000002,-2 -2,-2 zm-28.2812,11.71875 c-0.5119,0 -1.0157,0.20315 -1.4063,0.5937500000000002 c-0.781,0.781 -0.781,2.0314 0,2.8125 l5.6563,5.65625 c0.7808,0.781 2.0314,0.781 2.8124000000000002,0 c0.7811,-0.781 0.7811,-2.0314 0,-2.8125 l-5.6562,-5.65625 c-0.3905000000000001,-0.3906000000000001 -0.8945000000000002,-0.5937500000000002 -1.4062000000000001,-0.5937500000000002 zm56.5624,0 c-0.5117,0 -1.0156,0.20315 -1.4062000000000001,0.5937500000000002 l-5.6562,5.65625 c-0.7811,0.7811 -0.7811,2.0315 0,2.8125 c0.781,0.781 2.0315,0.781 2.8124000000000002,0 l5.6563,-5.65625 c0.781,-0.7811 0.781,-2.0315 0,-2.8125 c-0.3906000000000001,-0.3906000000000001 -0.8943000000000002,-0.5937500000000002 -1.4063,-0.5937500000000002 zM42,17.999999991836603 c-12.1952,0 -24,9.46149 -24,22.84379 c0,17.36372 13,20.99992 13,33.15622 l22,0 c0,-12.1563 13,-15.7925 13,-33.15623 c0,-13.3823 -11.8048,-22.84379 -24,-22.84379 zm-6.1562,6.0625 a2.0002,2.0002 0 0 1 0.031000000000000014,0 a2.0002,2.0002 0 0 1 0.15620000000000006,0 a2.0002,2.0002 0 0 1 0.6876000000000004,3.8749900000000004 c-4.8732,1.8375 -8.5353,6.1526 -9.4688,11.4063 a2.0012858,2.0012858 0 0 1 -3.9375,-0.7188000000000002 c1.1819,-6.6513 5.7877,-12.07533 11.9687,-14.40624 a2.0002,2.0002 0 0 1 0.5626000000000002,-0.15625000000000006 zM1.9999997999999994,39.999989991836514 c-1.1046,0 -2,0.8954000000000002 -2,2 c0,1.1046 0.8954000000000002,2 2,2 l8.0000002,0 c1.1046,0 2,-0.8954000000000002 2,-2 c0,-1.1046 -0.8954000000000002,-2 -2,-2 l-8.0000002,0 zm72.0000002,0 c-1.1046,0 -2,0.8954000000000002 -2,2 c0,1.1046 0.8954000000000002,2 2,2 l8,0 c1.1046,0 2,-0.8954000000000002 2,-2 c0,-1.1046 -0.8954000000000002,-2 -2,-2 l-8,0 zm-43,38.00002 l0,4 l22,0 l0,-4 l-22,0 zm0,8 c0,2.2981 1.8895,4 4,4 l14,0 c2.1105,0 4,-1.7019000000000002 4,-4 l-22,0 zm7,6 c0,2.216 1.784,4 4,4 c2.216,0 4,-1.784 4,-4 l-8,0 z" fill="#ffffff" stroke="none" marker="none" visibility="visible" display="inline" overflow="visible" id="svg_2" fill-opacity="1"/></g></g></svg>