<svg xmlns="http://www.w3.org/2000/svg" width="28" height="28" style=""><rect id="backgroundrect" width="100%" height="100%" x="0" y="0" fill="none" stroke="none" class="" style=""/><defs><style>.cls-1{fill:none;}</style></defs><title>Mail</title><g class="currentLayer" style=""><title>Layer 1</title><g data-name="Add" id="svg_1" class="" fill="#ffffff" fill-opacity="1"><polygon class="cls-1" points="25.389999389648438,6.0000269412994385 2.6100001335144043,6.0000269412994385 14,13.790026903152466 25.389999389648438,6.0000269412994385 " id="svg_2" fill="#ffffff" fill-opacity="1"/><polygon class="cls-1" points="26,17.320027589797974 26,8.010027170181274 19.719999313354492,12.300027132034302 26,17.320027589797974 " id="svg_3" fill="#ffffff" fill-opacity="1"/><path class="cls-1" d="M14.57,15.830026941299437 a1,1 0 0 1 -1.1400000000000001,0 L10,13.480026941299439 l-8,6.4 v1.54 a0.5800000000000004,0.5800000000000004 0 0 0 0.5800000000000004,0.5800000000000004 H25.42 a0.5800000000000004,0.5800000000000004 0 0 0 0.5800000000000004,-0.5800000000000004 V19.880026941299437 l-8,-6.4 z" id="svg_4" fill="#ffffff" fill-opacity="1"/><polygon class="cls-1" points="2,8.010027170181274 2,17.320027589797974 8.279999732971191,12.300027132034302 2,8.010027170181274 " id="svg_5" fill="#ffffff" fill-opacity="1"/><path d="M0,21.42002694129944 A2.59,2.59 0 0 0 2.58,24.00002694129944 H25.42 A2.59,2.59 0 0 0 28,21.42002694129944 V6.5800269412994385 a2.35,2.35 0 0 0 -0.08000000000000006,-0.6000000000000004 l0,-0.1 A2.58,2.58 0 0 0 25.42,4.0000269412994385 H2.58 A2.58,2.58 0 0 0 0.10999999999999989,5.880026941299438 l0,0.1 a2.35,2.35 0 0 0 -0.08000000000000006,0.6000000000000004 zM2,8.000026941299438 l6.28,4.29 L2,17.32002694129944 zM26,21.42002694129944 a0.5800000000000004,0.5800000000000004 0 0 1 -0.5800000000000004,0.5800000000000004 H2.58 A0.5800000000000004,0.5800000000000004 0 0 1 2,21.42002694129944 V19.880026941299437 l8,-6.4 l3.43,2.35 a1,1 0 0 0 1.1400000000000001,0 L18,13.480026941299439 l8,6.4 zm0,-4.1 l-6.28,-5 L26,8.000026941299438 zM25.39,6.0000269412994385 L14,13.790026941299438 L2.6100000000000003,6.0000269412994385 z" id="svg_6" fill="#ffffff" fill-opacity="1"/></g></g></svg>