<svg xmlns="http://www.w3.org/2000/svg" xmlns:xlink="http://www.w3.org/1999/xlink" version="1.1" enable-background="new 0 0 100 100" xml:space="preserve" width="68" height="72"><rect id="backgroundrect" width="100%" height="100%" x="0" y="0" fill="none" stroke="none" class="" style=""/><g class="currentLayer" style="" fill="#FFF"><title>Layer 1</title><g id="svg_1" class=""><g id="svg_2"><g id="svg_3"><path d="M51.68199965667725,14.47200154876709 c-0.6220000000000001,0 -1.231,0.04100000000000001 -1.832,0.10900000000000001 c-2.423,-8.417 -10.163,-14.581 -19.358,-14.581 c-11.132,0 -20.156,9.024 -20.156,20.156 c0,0.933 0.08500000000000002,1.8410000000000002 0.20800000000000002,2.74 C4.576999656677245,23.79500154876709 -3.433227533378158e-7,28.92900154876709 -3.433227533378158e-7,35.14600154876709 c0,6.852 5.553,12.403 12.402,12.403 h39.28 c9.134,0 16.538,-7.405 16.538,-16.538 S60.81599965667725,14.47200154876709 51.68199965667725,14.47200154876709 " id="svg_4"/></g></g><rect x="19.80660084052961" y="49.47231142882354" transform="matrix(0.5879,-0.8089,0.8089,0.5879,-48.1236,50.0613) " width="14.213000297546387" height="3.617000102996826" id="svg_5"/><rect x="42.56360081001203" y="50.399305752554014" transform="matrix(0.5879,-0.8089,0.8089,0.5879,-39.0167,69.7937) " width="16.540000915527344" height="3.61899995803833" id="svg_6"/><rect x="53.09438208216304" y="52.579749817469704" transform="matrix(0.5877,-0.8091,0.8091,0.5877,-35.3743,81.3179) " width="21.708999633789062" height="3.615999937057495" id="svg_7"/><rect x="53.974969215236484" y="71.52848883370741" transform="matrix(-0.809,-0.5878,0.5878,-0.809,16.9812,161.9439) " width="3.617000102996826" height="17.055999755859375" id="svg_8"/><rect x="71.71060398384016" y="56.962309292593076" transform="matrix(0.5879,-0.8089,0.8089,0.5879,-34.4441,91.8932) " width="6.203999996185303" height="3.61899995803833" id="svg_9"/></g></g></svg>