<svg xmlns="http://www.w3.org/2000/svg" xmlns:xlink="http://www.w3.org/1999/xlink" version="1.1" enable-background="new 0 0 100 100" xml:space="preserve" width="68" height="68"><rect id="backgroundrect" width="100%" height="100%" x="0" y="0" fill="none" stroke="none" class="" style=""/><g class="currentLayer" style="" fill="#FFF"><title>Layer 1</title><g id="svg_1" class=""><path d="M50.16199965667725,34.111000061035156 c0,8.865 -7.187,16.053 -16.052,16.053 S18.057999656677246,42.97600006103516 18.057999656677246,34.111000061035156 S25.244999656677244,18.05800006103516 34.109999656677246,18.05800006103516 S50.16199965667725,25.246000061035154 50.16199965667725,34.111000061035156 " id="svg_2"/><rect x="32.102999687194824" y="0" width="4.013999938964844" height="12.039999961853027" id="svg_3"/><rect x="32.102999687194824" y="56.18299865722656" width="4.013999938964844" height="12.039999961853027" id="svg_4"/><rect x="0" y="32.104000091552734" width="12.038000106811523" height="4.013999938964844" id="svg_5"/><rect x="56.18199825286865" y="32.104000091552734" width="12.038000106811523" height="4.013999938964844" id="svg_6"/><rect x="28.82775806328157" y="3.3606429771402695" transform="matrix(0.7074,-0.7068,0.7068,0.7074,-12.7779,30.827) " width="4.013999938964844" height="10.031000137329102" id="svg_7"/><rect x="67.15265169584987" y="41.66663998560922" transform="matrix(0.7069,-0.7073,0.7073,0.7069,-28.6452,69.1886) " width="4.014999866485596" height="10.034000396728516" id="svg_8"/><rect x="51.309359846544126" y="64.14364901030301" transform="matrix(-0.7073,-0.7069,0.7069,-0.7073,3.7742,139.8733) " width="4.013999938964844" height="10.03499984741211" id="svg_9"/><rect x="89.6183279695332" y="25.799691472180875" transform="matrix(-0.7062,-0.708,0.708,-0.7062,96.1515,101.5909) " width="4.013999938964844" height="10.031999588012695" id="svg_10"/></g></g></svg>