<svg xmlns="http://www.w3.org/2000/svg" data-name="Layer 1" width="28" height="28"><rect id="backgroundrect" width="100%" height="100%" x="0" y="0" fill="none" stroke="none" class="" style=""/><title>User</title><g class="currentLayer" style="" fill="#ffffff"><title>Layer 1</title><path d="M13.97477412223816,0 a14,14 0 1 0 2,27.86 A14,14 0 0 0 27.97477412223816,14 A14,14 0 0 0 13.97477412223816,0 zM9.97477412223816,12 a4,4 0 1 1 4,4 A4,4 0 0 1 9.97477412223816,12 zM19.97477412223816,24.38 l-0.08000000000000002,0 a11.33,11.33 0 0 1 -1.3,0.6400000000000001 l-0.05000000000000001,0 a12.29,12.29 0 0 1 -9.13,0 l-0.06000000000000001,0 a11.34,11.34 0 0 1 -1.3,-0.6400000000000001 l-0.08000000000000002,0 V24 a6,6 0 0 1 12,0 zM21.90477412223816,23 a8,8 0 0 0 -4.39,-6.15 a6,6 0 1 0 -7.07,0 A8,8 0 0 0 6.0447741222381595,23 a12,12 0 1 1 15.86,0 z" id="svg_1" class=""/></g></svg>