<svg xmlns="http://www.w3.org/2000/svg" xmlns:xlink="http://www.w3.org/1999/xlink" version="1.1" enable-background="new 0 0 139 139" xml:space="preserve" width="122" height="122"><rect id="backgroundrect" width="100%" height="100%" x="0" y="0" fill="none" stroke="none" class="" style=""/><g class="currentLayer" style=""><title>Layer 1</title><path d="M60.83300018310547,121.66899908447266 c-33.543,0 -60.833,-27.29 -60.833,-60.835 c0,-33.544 27.29,-60.834 60.833,-60.834 c33.545,0 60.835,27.29 60.835,60.834 C121.66800018310548,94.37899908447265 94.37800018310547,121.66899908447266 60.83300018310547,121.66899908447266 zM60.83300018310547,5.999999084472657 c-30.235,0 -54.833,24.599 -54.833,54.834 c0,30.236 24.598,54.835 54.833,54.835 c30.236,0 54.835,-24.599 54.835,-54.835 C115.66800018310546,30.59899908447266 91.06900018310547,5.999999084472657 60.83300018310547,5.999999084472657 z" id="svg_1" class=""/><path d="M82.65000018310546,74.51899908447265 l-13.159,-13.16 l12.21,-12.211 c2.309,-2.307 2.309,-6.049 0,-8.358 c-2.307,-2.308 -6.05,-2.307 -8.357,0 L61.133000183105466,53.00099908447265 l-12.809,-12.81 c-2.309,-2.308 -6.051,-2.308 -8.358,0 c-2.307,2.309 -2.307,6.049 0,8.358 l12.81,12.809 L39.01800018310547,75.11599908447266 c-2.309,2.31 -2.309,6.05 0,8.359 c2.308,2.307 6.049,2.307 8.356,0 L61.133000183105466,69.71699908447266 l13.16,13.16 c2.308,2.307 6.049,2.307 8.357,0 C84.95900018310547,80.56799908447266 84.95800018310547,76.82499908447265 82.65000018310546,74.51899908447265 z" id="svg_2" class=""/></g></svg>